<?xml version="1.0" standalone="yes"?>
<svg xmlns="http://www.w3.org/2000/svg" width="720" height="720">
<path style="fill:#fffefe; stroke:none;" d="M0 0L0 720L720 720L720 0L0 0z"/>
<path style="fill:#d5acac; stroke:none;" d="M351 124L351 125L390 124C378.415 118.799 363.095 123.045 351 124z"/>
<path style="fill:#937d76; stroke:none;" d="M365 123L365 124L384 124L365 123M342 127L342 128L360 125L342 127z"/>
<path style="fill:#4e393a; stroke:none;" d="M516 378C522.854 372.91 525.903 364.801 528.692 357C536.51 335.131 534.11 317.428 528.37 295C512.346 232.385 483.156 159.632 419 133.012C393.837 122.571 366.116 121.497 340 128.745C331.105 131.214 322.694 138.315 314 140.066C309.459 140.981 303.533 137.431 299 136.616C291.873 135.333 284.963 136.61 278 138.235C235.283 148.209 198.339 186.909 176.065 223C156.906 254.044 144.941 289.399 145 326C145.018 337.397 148.64 360.797 160.996 365.712C165.083 367.338 167.351 363.645 166.279 359.996C164.814 355.013 160.75 350.787 158.677 346C154.635 336.666 153.243 325.028 154.576 315C161.552 262.514 185.305 220.578 222.424 183.286C239.596 166.033 266.435 146.002 292 146.002C300.311 146.002 309.186 155.393 315.896 154.422C320.567 153.746 325.845 145.097 331 142.873C347.814 135.618 366.706 132.04 385 134.286C457.353 143.172 495.061 216.221 513.424 279C518.614 296.742 523.64 314.454 524.911 333C525.98 348.611 516.132 362.037 516 378z"/>
<path style="fill:#937d76; stroke:none;" d="M361.667 124.333L362.333 124.667L361.667 124.333M385 124L385 125L408 129L385 124z"/>
<path style="fill:#d5acac; stroke:none;" d="M392 124L392 125L396 125L392 124M346 125L346 126L350 126L346 125M397 125L397 126L405 127L397 125M342 126L342 127L346 127L342 126M339 127L339 128L342 128L339 127M405 127L405 128L408 128L405 127M333 129L333 130L338 129L333 129z"/>
<path style="fill:#937d76; stroke:none;" d="M338 128L338 129L341 129L338 128z"/>
<path style="fill:#d5acac; stroke:none;" d="M408 128L408 129L419 132L408 128z"/>
<path style="fill:#937d76; stroke:none;" d="M336.667 129.333L337.333 129.667L336.667 129.333M409 129L409 130L412 130L409 129z"/>
<path style="fill:#d5acac; stroke:none;" d="M326 132L326 133L332 131L326 132z"/>
<path style="fill:#937d76; stroke:none;" d="M332 130L332 131L335 131L332 130M412.667 130.333L413.333 130.667L412.667 130.333M330.667 131.333L331.333 131.667L330.667 131.333M415.667 131.333L416.333 131.667L415.667 131.333M328.667 132.333L329.333 132.667L328.667 132.333M417 132L417 133C455.394 144.06 481.993 184.121 500 217L501 217C493.125 190.23 466.28 161.427 444 145.884C436.07 140.352 426.675 133.725 417 132z"/>
<path style="fill:#d5acac; stroke:none;" d="M420.667 132.333L421.333 132.667L420.667 132.333M324 133L325 134L324 133z"/>
<path style="fill:#937d76; stroke:none;" d="M325 133L325 134L328 134L325 133z"/>
<path style="fill:#d5acac; stroke:none;" d="M422.667 133.333L423.333 133.667L422.667 133.333M258 143L258 144L296 135C285.303 130.521 267.969 139.134 258 143M320 136L323 134L320 136z"/>
<path style="fill:#937d76; stroke:none;" d="M323.667 134.333L324.333 134.667L323.667 134.333M359 134L359 135L405 139C392.462 131.342 373.047 134 359 134z"/>
<path style="fill:#d5acac; stroke:none;" d="M424 134L424 135L428 136L428 135L424 134z"/>
<path style="fill:#937d76; stroke:none;" d="M288 135L288 136L297 136L288 135z"/>
<path style="fill:#d5acac; stroke:none;" d="M297 135L297 136C304.766 136.355 312.885 142.924 319 136C311.207 139.847 305.164 135.174 297 135z"/>
<path style="fill:#937d76; stroke:none;" d="M322 135L323 136L322 135M337 140L337 141L358 136L337 140z"/>
<path style="fill:#d5acac; stroke:none;" d="M358 135L358 136L387 136L358 135z"/>
<path style="fill:#937d76; stroke:none;" d="M282 136L282 137L287 137L282 136M298 136L298 137L303 137L298 136M319 136L319 137L322 137L319 136z"/>
<path style="fill:#d5acac; stroke:none;" d="M354 136L354 137L358 137L354 136M389 136L389 137L393 137L389 136M428.667 136.333L429.333 136.667L428.667 136.333z"/>
<path style="fill:#937d76; stroke:none;" d="M278 137L278 138L282 138L278 137M303 137L303 138L306 138L303 137M318 137L319 138L318 137z"/>
<path style="fill:#d5acac; stroke:none;" d="M350 137L350 138L354 138L350 137M393 137L393 138L398 138L393 137M430.667 137.333L431.333 137.667L430.667 137.333z"/>
<path style="fill:#937d76; stroke:none;" d="M270 139L270 140L277 139L270 139M306 138L306 139L309 139L306 138M317 138L318 139L317 138z"/>
<path style="fill:#d5acac; stroke:none;" d="M346 138L346 139L350 139L346 138M399 138L399 139L402 139L399 138M432.667 138.333L433.333 138.667L432.667 138.333z"/>
<path style="fill:#937d76; stroke:none;" d="M309.667 139.333L310.333 139.667L309.667 139.333M315.667 139.333L316.333 139.667L315.667 139.333z"/>
<path style="fill:#d5acac; stroke:none;" d="M342 139L342 140L346 140L342 139M402 139L402 140L408 141L402 139z"/>
<path style="fill:#937d76; stroke:none;" d="M406 139L406 140C440.083 151.109 462.594 177.21 482 206L483 206C469.869 178.236 437.565 144.435 406 139z"/>
<path style="fill:#d5acac; stroke:none;" d="M434.667 139.333L435.333 139.667L434.667 139.333z"/>
<path style="fill:#937d76; stroke:none;" d="M267 140L267 141L270 141L267 140M311 140L311 141L315 141L311 140z"/>
<path style="fill:#d5acac; stroke:none;" d="M334 142L334 143L342 141L334 142M436 140L437 141L436 140z"/>
<path style="fill:#937d76; stroke:none;" d="M265.667 141.333L266.333 141.667L265.667 141.333M334.667 141.333L335.333 141.667L334.667 141.333z"/>
<path style="fill:#d5acac; stroke:none;" d="M409.667 141.333L410.333 141.667L409.667 141.333M437 141L438 142L437 141z"/>
<path style="fill:#937d76; stroke:none;" d="M262.667 142.333L263.333 142.667L262.667 142.333M323 148L334 143C329.86 141.865 325.27 144.535 323 148z"/>
<path style="fill:#d5acac; stroke:none;" d="M411 142L411 143L414 143L411 142M438.667 142.333L439.333 142.667L438.667 142.333z"/>
<path style="fill:#937d76; stroke:none;" d="M260.667 143.333L261.333 143.667L260.667 143.333z"/>
<path style="fill:#d5acac; stroke:none;" d="M331.667 143.333L332.333 143.667L331.667 143.333M414.667 143.333L415.333 143.667L414.667 143.333M440 143L441 144L440 143M241 153L241 154L257 145L241 153z"/>
<path style="fill:#937d76; stroke:none;" d="M257.667 144.333L258.333 144.667L257.667 144.333z"/>
<path style="fill:#d5acac; stroke:none;" d="M329 144L330 145L329 144M416.667 144.333L417.333 144.667L416.667 144.333M442 144L443 145L442 144z"/>
<path style="fill:#937d76; stroke:none;" d="M256 145L257 146L256 145z"/>
<path style="fill:#d5acac; stroke:none;" d="M327.667 145.333L328.333 145.667L327.667 145.333M419 145L422 147L419 145M443 145L444 146L443 145z"/>
<path style="fill:#937d76; stroke:none;" d="M254 146L255 147L254 146M282 147L282 148L302 148C296.817 144.459 287.875 145.601 282 147z"/>
<path style="fill:#d5acac; stroke:none;" d="M325.667 146.333L326.333 146.667L325.667 146.333M444.667 146.333L445.333 146.667L444.667 146.333z"/>
<path style="fill:#937d76; stroke:none;" d="M252.667 147.333L253.333 147.667L252.667 147.333z"/>
<path style="fill:#d5acac; stroke:none;" d="M285 147L285 148L300 148L285 147M324 147L325 148L324 147M422.667 147.333L423.333 147.667L422.667 147.333M446 147L448 149L448 147L446 147z"/>
<path style="fill:#937d76; stroke:none;" d="M250.667 148.333L251.333 148.667L250.667 148.333M266 152L266 153L281 149L266 152z"/>
<path style="fill:#d5acac; stroke:none;" d="M281 148L281 149L285 149L281 148M300 148L300 149C309.226 151.74 318.434 163.33 323 148L322 148C316.104 161.282 309.408 149.704 300 148z"/>
<path style="fill:#937d76; stroke:none;" d="M303.667 148.333L304.333 148.667L303.667 148.333M321.333 148.667L321.667 149.333L321.333 148.667z"/>
<path style="fill:#d5acac; stroke:none;" d="M425 148L426 149L425 148z"/>
<path style="fill:#937d76; stroke:none;" d="M248.667 149.333L249.333 149.667L248.667 149.333z"/>
<path style="fill:#d5acac; stroke:none;" d="M277 149L277 150L280 150L277 149z"/>
<path style="fill:#937d76; stroke:none;" d="M305.667 149.333L306.333 149.667L305.667 149.333z"/>
<path style="fill:#d5acac; stroke:none;" d="M426.667 149.333L427.333 149.667L426.667 149.333M449 149L450 150L449 149z"/>
<path style="fill:#937d76; stroke:none;" d="M247 150L248 151L247 150z"/>
<path style="fill:#d5acac; stroke:none;" d="M274 150L274 151L277 151L274 150z"/>
<path style="fill:#937d76; stroke:none;" d="M307 150L309 152L309 150L307 150M320.333 150.667L320.667 151.333L320.333 150.667z"/>
<path style="fill:#d5acac; stroke:none;" d="M428.667 150.333L429.333 150.667L428.667 150.333M450 150L451 151L450 150z"/>
<path style="fill:#937d76; stroke:none;" d="M245.667 151.333L246.333 151.667L245.667 151.333z"/>
<path style="fill:#d5acac; stroke:none;" d="M271 151L271 152L274 152L271 151M430.667 151.333L431.333 151.667L430.667 151.333M451 151L452 152L451 151z"/>
<path style="fill:#937d76; stroke:none;" d="M244 152L245 153L244 152z"/>
<path style="fill:#d5acac; stroke:none;" d="M268.667 152.333L269.333 152.667L268.667 152.333z"/>
<path style="fill:#937d76; stroke:none;" d="M309 152L313 155L309 152M319.333 152.667L319.667 153.333L319.333 152.667z"/>
<path style="fill:#d5acac; stroke:none;" d="M432 152L433 153L432 152M452 152L456 155L452 152z"/>
<path style="fill:#937d76; stroke:none;" d="M242.667 153.333L243.333 153.667L242.667 153.333M244 166L265 154C258.598 152.954 247.905 161.275 244 166z"/>
<path style="fill:#d5acac; stroke:none;" d="M265 153L265 154L268 154L265 153M433 153L434 154L433 153z"/>
<path style="fill:#937d76; stroke:none;" d="M222 170L242 155C235.395 154.666 225.643 164.935 222 170z"/>
<path style="fill:#d5acac; stroke:none;" d="M263.667 154.333L264.333 154.667L263.667 154.333z"/>
<path style="fill:#937d76; stroke:none;" d="M317.667 154.333L318.333 154.667L317.667 154.333z"/>
<path style="fill:#d5acac; stroke:none;" d="M434.667 154.333L435.333 154.667L434.667 154.333M238 155L239 156L238 155M261.667 155.333L262.333 155.667L261.667 155.333z"/>
<path style="fill:#937d76; stroke:none;" d="M313 155L313 156L317 156L313 155z"/>
<path style="fill:#d5acac; stroke:none;" d="M436 155L437 156L436 155M456 155L457 156L456 155M236.667 156.333L237.333 156.667L236.667 156.333M259.667 156.333L260.333 156.667L259.667 156.333M437.667 156.333L438.333 156.667L437.667 156.333M457 156L458 157L457 156M235 157L236 158L235 157M258 157L259 158L258 157M439 157L440 158L439 157M458 157L459 158L458 157M233 158L233 160L235 158L233 158M256.667 158.333L257.333 158.667L256.667 158.333M440 158L441 159L440 158M459 158L460 159L459 158M254.667 159.333L255.333 159.667L254.667 159.333M441 159L444 161L441 159M460 159L461 160L460 159M231 160L232 161L231 160M253 160L254 161L253 160M461 160L462 161L461 160M230 161L231 162L230 161M251 161L252 162L251 161M444 161L445 162L444 161M462 161L463 162L462 161M228 162L228 164L230 162L228 162M248 164L251 162L248 164M445 162L446 163L445 162M463 162L464 163L463 162M446 163L447 164L446 163M464 163L465 164L464 163M226 164L227 165L226 164M245 166L248 164L245 166M447 164L451 167L447 164M465 164L466 165L465 164M225 165L226 166L225 165M466 165L467 166L466 165M224 166L225 167L224 166z"/>
<path style="fill:#937d76; stroke:none;" d="M242 166C216.15 188.369 187.113 212.714 175 246L176 246C187.071 224.959 200.159 206.841 217 190C222.978 184.022 239.965 173.881 242 166z"/>
<path style="fill:#d5acac; stroke:none;" d="M243.667 166.333L244.333 166.667L243.667 166.333M467 166L468 167L467 166M223 167L224 168L223 167M242 167L243 168L242 167M451 167L451 169L453 169L451 167M468 167L469 168L468 167M190 201L223 169L212.715 175.884L190 201M241 168L242 169L241 168M469 168L473 173L469 168M240 169L241 170L240 169M453 169L454 170L453 169z"/>
<path style="fill:#937d76; stroke:none;" d="M220 170L219 172L221 172L220 170z"/>
<path style="fill:#d5acac; stroke:none;" d="M238.667 170.333L239.333 170.667L238.667 170.333M454 170L455 171L454 170M237 171L238 172L237 171M455 171L456 172L455 171z"/>
<path style="fill:#937d76; stroke:none;" d="M218 172L219 173L218 172z"/>
<path style="fill:#d5acac; stroke:none;" d="M236 172L237 173L236 172M456 172L457 173L456 172z"/>
<path style="fill:#937d76; stroke:none;" d="M217 173L218 174L217 173z"/>
<path style="fill:#d5acac; stroke:none;" d="M235 173L236 174L235 173M457 173L461 178L457 173M473 173L474 174L473 173z"/>
<path style="fill:#937d76; stroke:none;" d="M216 174L217 175L216 174z"/>
<path style="fill:#d5acac; stroke:none;" d="M233.667 174.333L234.333 174.667L233.667 174.333M474 174L476 177L474 174z"/>
<path style="fill:#937d76; stroke:none;" d="M215 175L216 176L215 175z"/>
<path style="fill:#d5acac; stroke:none;" d="M232 175L233 176L232 175z"/>
<path style="fill:#937d76; stroke:none;" d="M214 176L215 177L214 176z"/>
<path style="fill:#d5acac; stroke:none;" d="M231 176L232 177L231 176z"/>
<path style="fill:#937d76; stroke:none;" d="M213 177L214 178L213 177z"/>
<path style="fill:#d5acac; stroke:none;" d="M230 177L231 178L230 177M476 177L477 178L476 177z"/>
<path style="fill:#937d76; stroke:none;" d="M210 181L213 178L210 181z"/>
<path style="fill:#d5acac; stroke:none;" d="M226 181L230 178L226 181M461 178L462 179L461 178M477 178L478 179L477 178M462 179L463 180L462 179M478 179L479 180L478 179M463 180L464 181L463 180M479.333 180.667L479.667 181.333L479.333 180.667z"/>
<path style="fill:#937d76; stroke:none;" d="M209 181L210 182L209 181z"/>
<path style="fill:#d5acac; stroke:none;" d="M225 181L226 182L225 181M464 181L465 182L464 181z"/>
<path style="fill:#937d76; stroke:none;" d="M207 182L207 184L209 182L207 182z"/>
<path style="fill:#d5acac; stroke:none;" d="M224 182L225 183L224 182M465.333 182.667L465.667 183.333L465.333 182.667M480 182L481 183L480 182M223 183L224 184L223 183M481 183L482 184L481 183z"/>
<path style="fill:#937d76; stroke:none;" d="M206 184L207 185L206 184z"/>
<path style="fill:#d5acac; stroke:none;" d="M222 184L223 185L222 184M466 184L467 185L466 184M482.333 184.667L482.667 185.333L482.333 184.667z"/>
<path style="fill:#937d76; stroke:none;" d="M205 185L206 186L205 185z"/>
<path style="fill:#d5acac; stroke:none;" d="M221 185L222 186L221 185M467 185L468 186L467 185z"/>
<path style="fill:#937d76; stroke:none;" d="M203 186L203 188L205 186L203 186z"/>
<path style="fill:#d5acac; stroke:none;" d="M220 186L221 187L220 186M468 186L469 187L468 186M483 186L484 187L483 186M219 187L220 188L219 187M469.333 187.667L469.667 188.333L469.333 187.667M484 187L485 188L484 187z"/>
<path style="fill:#937d76; stroke:none;" d="M202 188L203 189L202 188z"/>
<path style="fill:#d5acac; stroke:none;" d="M218 188L219 189L218 188z"/>
<path style="fill:#937d76; stroke:none;" d="M201 189L202 190L201 189z"/>
<path style="fill:#d5acac; stroke:none;" d="M217 189L218 190L217 189M470 189L471 190L470 189M485 189L486 190L485 189z"/>
<path style="fill:#937d76; stroke:none;" d="M200 190L201 191L200 190z"/>
<path style="fill:#d5acac; stroke:none;" d="M216 190L217 191L216 190M471 190L473 193L471 190M486 190L488 193L486 190z"/>
<path style="fill:#937d76; stroke:none;" d="M199 191L200 192L199 191z"/>
<path style="fill:#d5acac; stroke:none;" d="M215 191L216 192L215 191z"/>
<path style="fill:#937d76; stroke:none;" d="M198 192L199 193L198 192z"/>
<path style="fill:#d5acac; stroke:none;" d="M214 192L215 193L214 192z"/>
<path style="fill:#937d76; stroke:none;" d="M197 193L198 194L197 193z"/>
<path style="fill:#d5acac; stroke:none;" d="M213 193L214 194L213 193M473 193L474 194L473 193M488 193L489 194L488 193z"/>
<path style="fill:#937d76; stroke:none;" d="M196.333 194.667L196.667 195.333L196.333 194.667z"/>
<path style="fill:#d5acac; stroke:none;" d="M212 194L213 195L212 194M474 194L476 197L474 194M211 195L212 196L211 195M489 195L490 196L489 195z"/>
<path style="fill:#937d76; stroke:none;" d="M195 196L196 197L195 196z"/>
<path style="fill:#d5acac; stroke:none;" d="M210 196L211 197L210 196M490 196L491 197L490 196z"/>
<path style="fill:#937d76; stroke:none;" d="M194 197L195 198L194 197z"/>
<path style="fill:#d5acac; stroke:none;" d="M209 197L210 198L209 197M476.333 197.667L476.667 198.333L476.333 197.667M491.333 197.667L491.667 198.333L491.333 197.667z"/>
<path style="fill:#937d76; stroke:none;" d="M193 198L194 199L193 198z"/>
<path style="fill:#d5acac; stroke:none;" d="M208 198L209 199L208 198z"/>
<path style="fill:#937d76; stroke:none;" d="M192 199L193 200L192 199z"/>
<path style="fill:#d5acac; stroke:none;" d="M207 199L208 200L207 199M477 199L478 200L477 199M492.333 199.667L492.667 200.333L492.333 199.667z"/>
<path style="fill:#937d76; stroke:none;" d="M191 200L166 240L167 240L183.862 212L191 200z"/>
<path style="fill:#d5acac; stroke:none;" d="M206.333 200.667L206.667 201.333L206.333 200.667M478.333 200.667L478.667 201.333L478.333 200.667M493.333 201.667L493.667 202.333L493.333 201.667M188 202L188 204L190 202L188 202M205 202L206 203L205 202M479 202L480 203L479 202M204 203L205 204L204 203M480.333 203.667L480.667 204.333L480.333 203.667M494 203L495 204L494 203M187 204L188 205L187 204M203 204L204 205L203 204M495.333 204.667L495.667 205.333L495.333 204.667M186 205L187 206L186 205M202 205L203 206L202 205M481 205L484 211L485 211L481 205M185.333 206.667L185.667 207.333L185.333 206.667M201 206L199 210L201 206M496.333 206.667L496.667 207.333L496.333 206.667z"/>
<path style="fill:#937d76; stroke:none;" d="M483 207L484 208L483 207z"/>
<path style="fill:#d5acac; stroke:none;" d="M184 208L185 209L184 208z"/>
<path style="fill:#937d76; stroke:none;" d="M484.333 208.667L484.667 209.333L484.333 208.667z"/>
<path style="fill:#d5acac; stroke:none;" d="M497.333 208.667L497.667 209.333L497.333 208.667M183 209L184 210L183 209M182.333 210.667L182.667 211.333L182.333 210.667M198 210L195 215L198 210z"/>
<path style="fill:#937d76; stroke:none;" d="M485 210L505 256L506 256C503.042 241.86 494.939 220.615 485 210z"/>
<path style="fill:#d5acac; stroke:none;" d="M498 210L499 211L498 210M181 212L182 213L181 212M485.333 212.667L485.667 213.333L485.333 212.667M499 212L500 213L499 212M180.333 213.667L180.667 214.333L180.333 213.667M500.333 213.667L500.667 214.333L500.333 213.667M486 214L487 215L486 214M179 215L180 216L179 215M194 215L195 216L194 215M487.333 215.667L487.667 216.333L487.333 215.667M178.333 216.667L178.667 217.333L178.333 216.667M193.333 216.667L193.667 217.333L193.333 216.667M501 216L503 219L501 216M488.333 217.667L488.667 218.333L488.333 217.667M177.333 218.667L177.667 219.333L177.333 218.667M192 218L193 219L192 218z"/>
<path style="fill:#937d76; stroke:none;" d="M501 218L502 219L501 218z"/>
<path style="fill:#d5acac; stroke:none;" d="M191 219L192 220L191 219M489.333 219.667L489.667 220.333L489.333 219.667z"/>
<path style="fill:#937d76; stroke:none;" d="M502 219L507 232L508 232L502 219z"/>
<path style="fill:#d5acac; stroke:none;" d="M176 220L177 221L176 220M190.333 220.667L190.667 221.333L190.333 220.667M503.333 220.667L503.667 221.333L503.333 220.667M175 221L174 224L175 221M490.333 221.667L490.667 222.333L490.333 221.667M189.333 222.667L189.667 223.333L189.333 222.667M504.333 222.667L504.667 223.333L504.333 222.667M491.333 223.667L491.667 224.333L491.333 223.667M173.333 224.667L173.667 225.333L173.333 224.667M188 224L189 225L188 224M505.333 224.667L505.667 225.333L505.333 224.667M187 225L188 226L187 225M492.333 225.667L492.667 226.333L492.333 225.667M172.333 226.667L172.667 227.333L172.333 226.667M186.333 226.667L186.667 227.333L186.333 226.667M506.333 226.667L506.667 227.333L506.333 226.667M493.333 227.667L493.667 228.333L493.333 227.667M171.333 228.667L171.667 229.333L171.333 228.667M185.333 228.667L185.667 229.333L185.333 228.667M507.333 228.667L507.667 229.333L507.333 228.667M170.333 230.667L170.667 231.333L170.333 230.667M184.333 230.667L184.667 231.333L184.333 230.667M494.333 230.667L494.667 231.333L494.333 230.667M508 230L514 248L515 248L508 230M169 232L170 233L169 232M183.333 232.667L183.667 233.333L183.333 232.667M495 232L496 236L497 236L495 232z"/>
<path style="fill:#937d76; stroke:none;" d="M508.333 233.667L508.667 234.333L508.333 233.667z"/>
<path style="fill:#d5acac; stroke:none;" d="M168 234L169 235L168 234M182 234L183 235L182 234M181.333 235.667L181.667 236.333L181.333 235.667z"/>
<path style="fill:#937d76; stroke:none;" d="M509 235L510 240L511 240L509 235z"/>
<path style="fill:#d5acac; stroke:none;" d="M167 236L168 237L167 236M497.333 236.667L497.667 237.333L497.333 236.667M166.333 237.667L166.667 238.333L166.333 237.667M180.333 237.667L180.667 238.333L180.333 237.667M498 238L498 241L499 241L498 238M165 239L163 244L164 244L165 239M179.333 239.667L179.667 240.333L179.333 239.667z"/>
<path style="fill:#937d76; stroke:none;" d="M511.333 240.667L511.667 241.333L511.333 240.667M165 241L166 242L165 241z"/>
<path style="fill:#d5acac; stroke:none;" d="M178.333 241.667L178.667 242.333L178.333 241.667M499 241L499 244L500 244L499 241z"/>
<path style="fill:#937d76; stroke:none;" d="M512.333 242.667L512.667 243.333L512.333 242.667M164 243L163 246L164 243z"/>
<path style="fill:#d5acac; stroke:none;" d="M177 243L178 244L177 243M176.333 244.667L176.667 245.333L176.333 244.667M500.333 244.667L500.667 245.333L500.333 244.667M162 245L160 251L161 251L162 245z"/>
<path style="fill:#937d76; stroke:none;" d="M513 245L513 248L514 248L513 245z"/>
<path style="fill:#d5acac; stroke:none;" d="M175 246L168 264L169 264L175 246M501.333 246.667L501.667 247.333L501.333 246.667z"/>
<path style="fill:#937d76; stroke:none;" d="M162.333 247.667L162.667 248.333L162.333 247.667M174 247L175 248L174 247M173.333 248.667L173.667 249.333L173.333 248.667z"/>
<path style="fill:#d5acac; stroke:none;" d="M502 248L502 251L503 251L502 248z"/>
<path style="fill:#937d76; stroke:none;" d="M514.333 248.667L514.667 249.333L514.333 248.667M161.333 249.667L161.667 250.333L161.333 249.667z"/>
<path style="fill:#d5acac; stroke:none;" d="M515 249L522 271L523 271L515 249z"/>
<path style="fill:#937d76; stroke:none;" d="M172 250L172 253L173 253L172 250M160.333 251.667L160.667 252.333L160.333 251.667z"/>
<path style="fill:#d5acac; stroke:none;" d="M503.333 251.667L503.667 252.333L503.333 251.667z"/>
<path style="fill:#937d76; stroke:none;" d="M515.333 251.667L515.667 252.333L515.333 251.667z"/>
<path style="fill:#d5acac; stroke:none;" d="M159 252L157 258L158 258L159 252z"/>
<path style="fill:#937d76; stroke:none;" d="M171.333 253.667L171.667 254.333L171.333 253.667M159.333 254.667L159.667 255.333L159.333 254.667z"/>
<path style="fill:#d5acac; stroke:none;" d="M504.333 254.667L504.667 255.333L504.333 254.667z"/>
<path style="fill:#937d76; stroke:none;" d="M516.333 254.667L516.667 255.333L516.333 254.667M170.333 255.667L170.667 256.333L170.333 255.667M158.333 256.667L158.667 257.333L158.333 256.667z"/>
<path style="fill:#d5acac; stroke:none;" d="M505 256L508 268L509 268L505 256z"/>
<path style="fill:#937d76; stroke:none;" d="M517 256L517 259L518 259L517 256M169 257L169 260L170 260L169 257M506.333 257.667L506.667 258.333L506.333 257.667M157 258L153 272L154 272L157 258z"/>
<path style="fill:#d5acac; stroke:none;" d="M156.333 259.667L156.667 260.333L156.333 259.667z"/>
<path style="fill:#937d76; stroke:none;" d="M518 259L518 262L519 262L518 259M168.333 260.667L168.667 261.333L168.333 260.667M507.333 260.667L507.667 261.333L507.333 260.667z"/>
<path style="fill:#d5acac; stroke:none;" d="M155.333 262.667L155.667 263.333L155.333 262.667z"/>
<path style="fill:#937d76; stroke:none;" d="M167 262L162 278L163 278L167 262M519 262L519 265L520 265L519 262M508 263L508 266L509 266L508 263z"/>
<path style="fill:#d5acac; stroke:none;" d="M154 264L154 267L155 267L154 264M167.333 265.667L167.667 266.333L167.333 265.667z"/>
<path style="fill:#937d76; stroke:none;" d="M520 265L520 269L521 269L520 265M509 266L518 299L519 299C517.642 288.92 514.431 274.631 509 266z"/>
<path style="fill:#d5acac; stroke:none;" d="M153 267L153 270L154 270L153 267M166 267L166 270L167 270L166 267M509 269L509 272L510 272L509 269z"/>
<path style="fill:#937d76; stroke:none;" d="M521.333 269.667L521.667 270.333L521.333 269.667z"/>
<path style="fill:#d5acac; stroke:none;" d="M152 270L152 273L153 273L152 270M165.333 270.667L165.667 271.333L165.333 270.667z"/>
<path style="fill:#937d76; stroke:none;" d="M522 271L531 309L532 309C531.101 297.701 527.93 280.706 522 271z"/>
<path style="fill:#d5acac; stroke:none;" d="M510 272L510 275L511 275L510 272M523.333 272.667L523.667 273.333L523.333 272.667z"/>
<path style="fill:#937d76; stroke:none;" d="M152.333 273.667L152.667 274.333L152.333 273.667z"/>
<path style="fill:#d5acac; stroke:none;" d="M164.333 273.667L164.667 274.333L164.333 273.667M151 274L149 282L150 282L151 274M524 274L524 278L525 278L524 274M511 275L511 278L512 278L511 275z"/>
<path style="fill:#937d76; stroke:none;" d="M151 276L151 279L152 279L151 276z"/>
<path style="fill:#d5acac; stroke:none;" d="M163.333 276.667L163.667 277.333L163.333 276.667M162 278L158 298L159 298L162 278M525 278L525 281L526 281L525 278z"/>
<path style="fill:#937d76; stroke:none;" d="M161 279L161 282L162 282L161 279z"/>
<path style="fill:#d5acac; stroke:none;" d="M512 279L512 282L513 282L512 279z"/>
<path style="fill:#937d76; stroke:none;" d="M150 280L147 295L148 295L150 280z"/>
<path style="fill:#d5acac; stroke:none;" d="M396 281L396 282L401 282L396 281M526 281L526 285L527 285L526 281z"/>
<path style="fill:#937d76; stroke:none;" d="M160 282L160 286L161 286L160 282z"/>
<path style="fill:#d5acac; stroke:none;" d="M378 292L395 283C388.18 280.346 381.642 286.873 378 292z"/>
<path style="fill:#937d76; stroke:none;" d="M376 299L377 299C384.972 279.984 414.816 276.878 423 298C425.046 290.175 413.101 284.727 407 283.239C393.582 279.967 379.908 284.861 376 299z"/>
<path style="fill:#d5acac; stroke:none;" d="M403 282L403 283L410 284L403 282M513 282L514 289L515 289L513 282M148 283L148 286L149 286L148 283z"/>
<path style="fill:#4e393a; stroke:none;" d="M305 358C290.263 361.379 276.963 364.037 262 359.56C258.631 358.552 252.03 357.018 249.697 354.273C246.069 350.005 258.757 332.307 248.957 331.546C244.346 331.189 242.665 336.565 241.587 340C238.059 351.245 231.701 361.254 223.829 370C214.159 380.745 199.275 392.652 184 392.946C178.069 393.06 172.678 388.437 167.019 388.951C161.795 389.426 161.544 394.962 165.228 397.647C184.319 411.562 212.904 396.156 226.907 381.975C230.794 378.038 238.647 363.505 244.093 363.164C247.008 362.981 250.349 365.894 253 366.931C259.288 369.389 266.276 371.18 273 371.83C288.838 373.363 301.244 365.253 316 364.448C327.462 363.822 338.696 372.001 351 370.83C360.117 369.963 370.103 367.225 378 362.546C383.02 359.572 387.626 354.219 393 352.106C397.124 350.485 401.942 353.772 406 354.532C412.446 355.74 420.709 355.669 427 353.79C441.621 349.422 445.954 335.232 458.039 328.733C461.253 327.005 464.723 329.382 468 329.812C474.972 330.725 482.427 329.628 487 324L467 323C468.619 316.11 480.816 304.705 474.258 297.473C469.008 291.684 460.31 300.661 457.905 305.001C446.861 324.931 434.886 348.398 408 345C414.209 331.049 427.544 319.026 424.535 302C421.277 283.57 392.392 275.444 380.637 291.04C372.926 301.272 372.935 317.256 376.44 329C377.683 333.166 384.967 341.832 383.093 345.791C378.876 354.701 359.943 360.284 351 360.91C345.981 361.262 329.547 361.634 327.331 355.581C326.057 352.1 332.471 344.507 333.703 341C337.176 331.112 336.284 320.099 330.906 311C325.263 301.452 308.259 287.59 297.214 297.419C292.309 301.784 291.046 309.816 290.286 316C287.925 335.214 297.696 342.333 305 358z"/>
<path style="fill:#d5acac; stroke:none;" d="M411 284L411 285L417 287L417 286L411 284M527 285L527 289L528 289L527 285z"/>
<path style="fill:#937d76; stroke:none;" d="M159 286L159 290L160 290L159 286z"/>
<path style="fill:#d5acac; stroke:none;" d="M147 287L147 290L148 290L147 287M417 287L419 289L419 287L417 287M419 289L423 293L419 289M515 289L515 292L516 292L515 289M528 289L528 292L529 292L528 289M146 290L145 301L146 301L146 290z"/>
<path style="fill:#937d76; stroke:none;" d="M158 290L158 294L159 294L158 290z"/>
<path style="fill:#d5acac; stroke:none;" d="M292 303L293 303C302.66 284.432 322.093 298.311 331 310C329.974 293.706 297.823 284.917 292 303M516 292L516 296L517 296L516 292M529 292L529 296L530 296L529 292z"/>
<path style="fill:#937d76; stroke:none;" d="M303 293L303 294L308 294L303 293z"/>
<path style="fill:#d5acac; stroke:none;" d="M377.333 293.667L377.667 294.333L377.333 293.667z"/>
<path style="fill:#937d76; stroke:none;" d="M384 321L385 321C385 313.829 384.392 305.281 388.728 299.055C394.709 290.466 407.514 294.014 413 301C413.197 291.796 395.527 291.268 390.108 295.514C382.816 301.228 384 312.821 384 321z"/>
<path style="fill:#d5acac; stroke:none;" d="M423.333 293.667L423.667 294.333L423.333 293.667z"/>
<path style="fill:#937d76; stroke:none;" d="M157 294L157 299L158 299L157 294M300 294L300 295L303 295L300 294M309 294L309 295L312 295L309 294z"/>
<path style="fill:#d5acac; stroke:none;" d="M387 303L388 303C390.649 295.296 396.792 295.005 404 295C396.77 291.966 388.595 295.122 387 303M465 295L465 296C469.828 295.121 472.718 295.062 476 299C476.13 293.156 469.019 294.046 465 295z"/>
<path style="fill:#937d76; stroke:none;" d="M298.667 295.333L299.333 295.667L298.667 295.333M312.667 295.333L313.333 295.667L312.667 295.333z"/>
<path style="fill:#d5acac; stroke:none;" d="M376.333 295.667L376.667 296.333L376.333 295.667z"/>
<path style="fill:#fffefe; stroke:none;" d="M394.015 295.573C383.26 298.756 385.122 318.862 387.785 326.999C388.949 330.552 392.307 337.16 397.025 336.173C401.605 335.215 405.201 328.757 407.218 324.996C414.101 312.164 416.272 288.984 394.015 295.573z"/>
<path style="fill:#d5acac; stroke:none;" d="M405.667 295.333L406.333 295.667L405.667 295.333M424 295L424 317L425 317C426.486 309.337 427.879 302.243 424 295z"/>
<path style="fill:#937d76; stroke:none;" d="M467 295L467 296L471 296L467 295M472.667 295.333L473.333 295.667L472.667 295.333M146 296L146 301L147 301L146 296M297 296L298 297L297 296M314 296L314 297L317 297L314 296z"/>
<path style="fill:#d5acac; stroke:none;" d="M407.667 296.333L408.333 296.667L407.667 296.333M463 296L451.262 317L438 333C448.152 327.127 451.56 316.63 456.378 307C458.28 303.198 462.06 300.078 463 296z"/>
<path style="fill:#937d76; stroke:none;" d="M463 297L463 298L467 297L463 297M474 296L475 297L474 296z"/>
<path style="fill:#d5acac; stroke:none;" d="M517 296L517 299L518 299L517 296M530 296L530 300L531 300L530 296z"/>
<path style="fill:#937d76; stroke:none;" d="M296 297L297 298L296 297M317 297L318 298L317 297z"/>
<path style="fill:#d5acac; stroke:none;" d="M375 297L372 317L373 317L375 297M410 297L411 298L410 297z"/>
<path style="fill:#937d76; stroke:none;" d="M475.333 297.667L475.667 298.333L475.333 297.667M295 298L296 299L295 298M318.667 298.333L319.333 298.667L318.667 298.333z"/>
<path style="fill:#d5acac; stroke:none;" d="M411 298L412 299L411 298z"/>
<path style="fill:#937d76; stroke:none;" d="M462 298L463 299L462 298z"/>
<path style="fill:#d5acac; stroke:none;" d="M157 299L155 329L156 329L157 299z"/>
<path style="fill:#937d76; stroke:none;" d="M294.333 299.667L294.667 300.333L294.333 299.667M320 299L321 300L320 299z"/>
<path style="fill:#d5acac; stroke:none;" d="M412.333 299.667L412.667 300.333L412.333 299.667z"/>
<path style="fill:#937d76; stroke:none;" d="M424 299L424 302L425 302L424 299M461 299L462 300L461 299M476 299C475.803 307.384 470.92 312.96 467 320C472.488 315.529 479.049 306.338 476 299z"/>
<path style="fill:#d5acac; stroke:none;" d="M518 299L519 306L520 306L518 299z"/>
<path style="fill:#937d76; stroke:none;" d="M156 300L156 305L157 305L156 300M321 300L324 302L321 300M375 300L375 304L376 304L375 300M460 300L461 301L460 300z"/>
<path style="fill:#d5acac; stroke:none;" d="M477 300L477 306L478 306L477 300z"/>
<path style="fill:#937d76; stroke:none;" d="M519 300L519 303L520 303L519 300M145 301L146 343L147 343L145.004 316L145 301M293.333 301.667L293.667 302.333L293.333 301.667z"/>
<path style="fill:#d5acac; stroke:none;" d="M413 301L413 311L414 311L413 301z"/>
<path style="fill:#937d76; stroke:none;" d="M459.333 301.667L459.667 302.333L459.333 301.667z"/>
<path style="fill:#d5acac; stroke:none;" d="M531 301L531 305L532 305L531 301M144 302L144 309L145 309L144 302z"/>
<path style="fill:#937d76; stroke:none;" d="M324 302L325 303L324 302M414 302L414 311L415 311L414 302M292 303L291 309L292 309L292 303M325 303L326 304L325 303M425 303L425 309L426 309L425 303M458 303L459 304L458 303M520 303L522 319L523 319L520 303z"/>
<path style="fill:#d5acac; stroke:none;" d="M291.333 304.667L291.667 305.333L291.333 304.667z"/>
<path style="fill:#937d76; stroke:none;" d="M302 309L303 309C307.47 301.792 314.957 309.888 320 313C316.201 308.077 305.016 299.065 302 309M326 304L327 305L326 304M374 304L374 311L375 311L374 304z"/>
<path style="fill:#d5acac; stroke:none;" d="M386 304L386 325L387 325L386 304z"/>
<path style="fill:#937d76; stroke:none;" d="M457.333 304.667L457.667 305.333L457.333 304.667M462 314L469 304C464.277 305.473 462.616 309.296 462 314z"/>
<path style="fill:#d5acac; stroke:none;" d="M304 305L304 306L312 308L304 305z"/>
<path style="fill:#937d76; stroke:none;" d="M327 305L328 306L327 305M155 306L155 315L156 315L155 306z"/>
<path style="fill:#d5acac; stroke:none;" d="M290 306L289 315L290 315L290 306z"/>
<path style="fill:#fffefe; stroke:none;" d="M304.738 307.043C296.974 312.84 301.665 333.629 305.866 339.985C308.031 343.262 312.835 349.811 317.319 346.377C326.211 339.569 325.759 323.229 319.696 315.039C317.25 311.735 309.523 303.472 304.738 307.043z"/>
<path style="fill:#937d76; stroke:none;" d="M328 306L330 309L328 306M456.333 306.667L456.667 307.333L456.333 306.667z"/>
<path style="fill:#d5acac; stroke:none;" d="M476.333 306.667L476.667 307.333L476.333 306.667M532 306L534 323L535 323L532 306M303 307L304 308L303 307M313 308L314 309L313 308z"/>
<path style="fill:#937d76; stroke:none;" d="M455 308L455 311L456 311L455 308z"/>
<path style="fill:#d5acac; stroke:none;" d="M475.333 308.667L475.667 309.333L475.333 308.667M302 309L302 313L303 313L302 309M314 309L315 310L314 309z"/>
<path style="fill:#937d76; stroke:none;" d="M330 309L335 325L336 325C335.733 319.162 334.21 313.202 330 309M424 309L424 314L425 314L424 309z"/>
<path style="fill:#d5acac; stroke:none;" d="M520 309L520 314L521 314L520 309z"/>
<path style="fill:#937d76; stroke:none;" d="M290 310L290 315L291 315L290 310M301 310L300 319L301 319L301 310z"/>
<path style="fill:#d5acac; stroke:none;" d="M315.667 310.333L316.333 310.667L315.667 310.333M474.333 310.667L474.667 311.333L474.333 310.667z"/>
<path style="fill:#937d76; stroke:none;" d="M532 310L532 315L533 315L532 310z"/>
<path style="fill:#d5acac; stroke:none;" d="M317 311L322 320L323 320L317 311M332 311L333 312L332 311z"/>
<path style="fill:#937d76; stroke:none;" d="M373 311C373.019 318.036 373.863 325.406 376.465 332C379.057 338.572 383.871 342.042 380 349L384.12 343.956L377.465 331L373 311M413 311L412 317L413 317L413 311M454 311L454 316L455 316L454 311z"/>
<path style="fill:#d5acac; stroke:none;" d="M143 312L143 334L144 334L143 312M333.333 312.667L333.667 313.333L333.333 312.667M412 312L412 315L413 315L412 312M473.333 312.667L473.667 313.333L473.333 312.667M301 314L301 319L302 319L301 314z"/>
<path style="fill:#937d76; stroke:none;" d="M320 314L321 315L320 314M423 314L421 323L422 323L423 314z"/>
<path style="fill:#d5acac; stroke:none;" d="M472 314L473 315L472 314M521 314L521 318L522 318L521 314z"/>
<path style="fill:#937d76; stroke:none;" d="M154 315L154 328L155 328L154 315M289 315L291 338L292 338L289 315M321 315L322 316L321 315z"/>
<path style="fill:#d5acac; stroke:none;" d="M334.333 315.667L334.667 316.333L334.333 315.667M411 315L404 330C407.773 326.766 412.41 320.141 411 315M471 315L472 316L471 315z"/>
<path style="fill:#937d76; stroke:none;" d="M322.333 316.667L322.667 317.333L322.333 316.667M453.333 316.667L453.667 317.333L453.333 316.667z"/>
<path style="fill:#d5acac; stroke:none;" d="M470.333 316.667L470.667 317.333L470.333 316.667z"/>
<path style="fill:#937d76; stroke:none;" d="M533 316L533 322L534 322L533 316z"/>
<path style="fill:#d5acac; stroke:none;" d="M288 317L288 330L289 330L288 317M335 317L335 320L336 320L335 317z"/>
<path style="fill:#937d76; stroke:none;" d="M323 318L324 323L325 323L323 318M411.333 318.667L411.667 319.333L411.333 318.667z"/>
<path style="fill:#d5acac; stroke:none;" d="M423.333 318.667L423.667 319.333L423.333 318.667z"/>
<path style="fill:#937d76; stroke:none;" d="M452 318L453 319L452 318z"/>
<path style="fill:#d5acac; stroke:none;" d="M469 318L470 319L469 318M300 319L301 320L300 319M373 319L373 325L374 325L373 319z"/>
<path style="fill:#937d76; stroke:none;" d="M451 319L452 320L451 319z"/>
<path style="fill:#d5acac; stroke:none;" d="M468 319L469 320L468 319M522 319L522 347L523 347C524.923 338.921 525.276 326.734 522 319z"/>
<path style="fill:#937d76; stroke:none;" d="M300 320L301 321L300 320M410.333 320.667L410.667 321.333L410.333 320.667M450 320L451 321L450 320z"/>
<path style="fill:#d5acac; stroke:none;" d="M467 320L477 323L477 322L467 320z"/>
<path style="fill:#937d76; stroke:none;" d="M523 320L523 327L524 327L523 320z"/>
<path style="fill:#d5acac; stroke:none;" d="M300 321L300 326L301 326L300 321M323.333 321.667L323.667 322.333L323.333 321.667M336 321L333 345L334 345C337.541 337.944 339.552 328.391 336 321M422.333 321.667L422.667 322.333L422.333 321.667z"/>
<path style="fill:#937d76; stroke:none;" d="M449 321L450 322L449 321M467 321L467 323L469 323L467 321z"/>
<path style="fill:#d5acac; stroke:none;" d="M479 321L479 322C483.236 322.138 489.295 324.889 482.937 328.442C478.063 331.165 472.384 330.999 467 331L467 332C475.586 332 485.304 332.192 489 323L479 321z"/>
<path style="fill:#937d76; stroke:none;" d="M385 322L385 325L386 325L385 322M409.333 322.667L409.667 323.333L409.333 322.667M448 322L449 323L448 322M477 322L477 323L486 323L477 322z"/>
<path style="fill:#d5acac; stroke:none;" d="M324 323C324 331.061 322.249 351.394 310 345C319.767 356.688 327.27 330.792 324 323M421 323L419 329L420 329L421 323z"/>
<path style="fill:#937d76; stroke:none;" d="M447 323L448 324L447 323M470 323L470 324L476 324L470 323M486 323L487 324L486 323M534 323L533 346L534 346C536.28 338.808 537.382 330.038 534 323M325 324L325 335L326 335L325 324M408 324L409 325L408 324M420.333 324.667L420.667 325.333L420.333 324.667M446 324L444 328L446 324z"/>
<path style="fill:#d5acac; stroke:none;" d="M535 324L535 328L536 328L535 324M374 325L374 329L375 329L374 325z"/>
<path style="fill:#937d76; stroke:none;" d="M386 325L387 330L388 330L386 325M486 325L484 328L486 325M300 326C300.074 334.853 303.566 343.984 312 348L300 326M336 326L336 333L337 333L336 326z"/>
<path style="fill:#d5acac; stroke:none;" d="M387.333 326.667L387.667 327.333L387.333 326.667z"/>
<path style="fill:#937d76; stroke:none;" d="M407 326L408 327L407 326M419.333 326.667L419.667 327.333L419.333 326.667z"/>
<path style="fill:#d5acac; stroke:none;" d="M301 327L301 333L302 333L301 327z"/>
<path style="fill:#937d76; stroke:none;" d="M433 351L433 352C443.562 347.996 452.437 328.113 463 329C459.119 326.238 456.434 328.838 453.579 332.019C447.151 339.186 441.209 345.788 433 351M406 328L407 329L406 328M418 328L408 345L426 344L426 343L409 344L418 328M443 328L444 329L443 328z"/>
<path style="fill:#d5acac; stroke:none;" d="M455 333L466 331C461.648 327.544 457.572 327.903 455 333z"/>
<path style="fill:#937d76; stroke:none;" d="M481 328L481 329L484 329L481 328z"/>
<path style="fill:#d5acac; stroke:none;" d="M536 328L536 340L537 340L536 328z"/>
<path style="fill:#937d76; stroke:none;" d="M155 329L155 336L156 336L155 329z"/>
<path style="fill:#d5acac; stroke:none;" d="M240 341L241 341C242.163 336.163 250.253 324.432 253.292 335.019C254.654 339.76 250.243 347.348 249 352C252.29 347.883 256.888 337.296 253.82 332.228C248.236 323.004 240.817 335.575 240 341M375.333 329.667L375.667 330.333L375.333 329.667M388 329C391.273 338.601 398.446 338.791 404 331C395.521 335.812 395.057 336.145 388 329z"/>
<path style="fill:#937d76; stroke:none;" d="M405 329L404 332L405 329M442 329L443 330L442 329M464.667 329.333L465.333 329.667L464.667 329.333M478 329L478 330L481 330L478 329M524 329L524 345L525 345L524 329z"/>
<path style="fill:#d5acac; stroke:none;" d="M156 330L157 340L158 340L156 330z"/>
<path style="fill:#937d76; stroke:none;" d="M245 331L245 332L251 331L245 331z"/>
<path style="fill:#d5acac; stroke:none;" d="M418 330L419 331L418 330z"/>
<path style="fill:#937d76; stroke:none;" d="M441 330L442 331L441 330M466 330L466 331L478 331L466 330M251 331L252 332L251 331M388.333 331.667L388.667 332.333L388.333 331.667z"/>
<path style="fill:#d5acac; stroke:none;" d="M417.333 331.667L417.667 332.333L417.333 331.667z"/>
<path style="fill:#937d76; stroke:none;" d="M440.333 331.667L440.667 332.333L440.333 331.667M244 332L245 333L244 332M252 332L253 333L252 332z"/>
<path style="fill:#d5acac; stroke:none;" d="M289 332L289 335L290 335L289 332M376.333 332.667L376.667 333.333L376.333 332.667z"/>
<path style="fill:#937d76; stroke:none;" d="M403 332L404 333L403 332M243.333 333.667L243.667 334.333L243.333 333.667M253 333L252 341L253 341L253 333M389 333L390 334L389 333M402 333L403 334L402 333z"/>
<path style="fill:#d5acac; stroke:none;" d="M416.333 333.667L416.667 334.333L416.333 333.667z"/>
<path style="fill:#937d76; stroke:none;" d="M438 333L427 342L427 343L440 333L438 333z"/>
<path style="fill:#d5acac; stroke:none;" d="M454 333L455 334L454 333M144 334L144 338L145 338L144 334M302.333 334.667L302.667 335.333L302.333 334.667z"/>
<path style="fill:#937d76; stroke:none;" d="M335 334L335 338L336 338L335 334z"/>
<path style="fill:#d5acac; stroke:none;" d="M377.333 334.667L377.667 335.333L377.333 334.667z"/>
<path style="fill:#937d76; stroke:none;" d="M390 334L391 335L390 334M401 334L402 335L401 334z"/>
<path style="fill:#d5acac; stroke:none;" d="M437 334L438 335L437 334M453 334L454 335L453 334z"/>
<path style="fill:#937d76; stroke:none;" d="M242.333 335.667L242.667 336.333L242.333 335.667M324 335L324 338L325 338L324 335M391 335L392 336L391 335M400 335L399 337L401 337L400 335z"/>
<path style="fill:#d5acac; stroke:none;" d="M415 335L416 336L415 335M436 335L437 336L436 335M452 335L453 336L452 335M290.333 336.667L290.667 337.333L290.333 336.667M303 336L305 339L303 336M378.333 336.667L378.667 337.333L378.333 336.667z"/>
<path style="fill:#937d76; stroke:none;" d="M392 336L393 337L392 336z"/>
<path style="fill:#d5acac; stroke:none;" d="M414.333 336.667L414.667 337.333L414.333 336.667M432 339L436 336L432 339M451 336L449 340L451 336z"/>
<path style="fill:#937d76; stroke:none;" d="M156 337L156 340L157 340L156 337M393.667 337.333L394.333 337.667L393.667 337.333M398 337L399 338L398 337M241 338L241 341L242 341L241 338z"/>
<path style="fill:#d5acac; stroke:none;" d="M291 338C292.384 345.759 297.637 351.523 303 357L298 358L298 359L304 357L291 338z"/>
<path style="fill:#937d76; stroke:none;" d="M323.333 338.667L323.667 339.333L323.333 338.667M334 338L334 341L335 341L334 338z"/>
<path style="fill:#d5acac; stroke:none;" d="M379 338L380 339L379 338z"/>
<path style="fill:#937d76; stroke:none;" d="M395 338L395 339L398 339L395 338z"/>
<path style="fill:#d5acac; stroke:none;" d="M413 338L414 339L413 338M145 339L145 343L146 343L145 339z"/>
<path style="fill:#937d76; stroke:none;" d="M292.333 339.667L292.667 340.333L292.333 339.667z"/>
<path style="fill:#d5acac; stroke:none;" d="M305.333 339.667L305.667 340.333L305.333 339.667M380.333 339.667L380.667 340.333L380.333 339.667M412 339L413 340L412 339M431 339L432 340L431 339z"/>
<path style="fill:#937d76; stroke:none;" d="M157 340C157.708 347.062 167.612 356.67 166.172 362.876C165.104 367.479 160.185 364.824 158.043 362.876C152.631 357.954 150.203 350.759 148 344L147 344C148.238 351.188 151.95 359.67 157.301 364.771C160.289 367.619 165.587 368.745 167.377 363.891C169.351 358.539 159.784 344.953 157 340M322.333 340.667L322.667 341.333L322.333 340.667z"/>
<path style="fill:#d5acac; stroke:none;" d="M411 340L412 341L411 340M429.667 340.333L430.333 340.667L429.667 340.333M448 340L449 341L448 340M158 341L158 344L159 344L158 341z"/>
<path style="fill:#937d76; stroke:none;" d="M240 341C234.74 363.146 214.259 381.565 194 390L194 391C210.623 386.211 223.684 373.056 232.996 359C236.129 354.27 241.738 346.893 240 341M293.333 341.667L293.667 342.333L293.333 341.667z"/>
<path style="fill:#d5acac; stroke:none;" d="M306 341L307 342L306 341M381 341L382 342L381 341M410 341L409 344L410 341M424 342L424 343L429 342L424 342M447 341L448 342L447 341M535.333 341.667L535.667 342.333L535.333 341.667M239.333 342.667L239.667 343.333L239.333 342.667z"/>
<path style="fill:#937d76; stroke:none;" d="M251.333 342.667L251.667 343.333L251.333 342.667z"/>
<path style="fill:#d5acac; stroke:none;" d="M307 342L308 343L307 342z"/>
<path style="fill:#937d76; stroke:none;" d="M321.333 342.667L321.667 343.333L321.333 342.667M333 342L331 347L332 347L333 342z"/>
<path style="fill:#d5acac; stroke:none;" d="M382 342L383 343L382 342M446 342L447 343L446 342M146 343L146 347L147 347L146 343z"/>
<path style="fill:#937d76; stroke:none;" d="M294.333 343.667L294.667 344.333L294.333 343.667z"/>
<path style="fill:#d5acac; stroke:none;" d="M308.333 343.667L308.667 344.333L308.333 343.667M383.333 343.667L383.667 344.333L383.333 343.667M420 343L420 344L424 344L420 343M445 343L446 344L445 343M159.333 344.667L159.667 345.333L159.333 344.667M238 344L238 347L239 347L238 344z"/>
<path style="fill:#937d76; stroke:none;" d="M320 344L318 348L320 344z"/>
<path style="fill:#d5acac; stroke:none;" d="M411 344L411 345L419 345L411 344M444 344L445 345L444 344M534.333 344.667L534.667 345.333L534.333 344.667z"/>
<path style="fill:#937d76; stroke:none;" d="M250 345L250 348L251 348L250 345M295 345L297 348L295 345z"/>
<path style="fill:#d5acac; stroke:none;" d="M382 345L383 346L382 345M443 345L444 346L443 345z"/>
<path style="fill:#937d76; stroke:none;" d="M523.333 345.667L523.667 346.333L523.333 345.667z"/>
<path style="fill:#d5acac; stroke:none;" d="M332 346C329.815 349.503 325.597 354.014 330 357L330 356L332 346M381 346L382 347L381 346M442 346L443 347L442 346M533 346L527 364L528 364L533 346M147.333 347.667L147.667 348.333L147.333 347.667M160.333 347.667L160.667 348.333L160.333 347.667M237.333 347.667L237.667 348.333L237.333 347.667M380 347L381 348L380 347M441 347L442 348L441 347z"/>
<path style="fill:#937d76; stroke:none;" d="M522 347L519 356L520 356L522 347M532.333 347.667L532.667 348.333L532.333 347.667M249.333 348.667L249.667 349.333L249.333 348.667M297 348L298 349L297 348M312 348L313 349L312 348M317 348L318 349L317 348M330 348L331 349L330 348z"/>
<path style="fill:#d5acac; stroke:none;" d="M361 357L361 358L380 349L361 357M439.667 348.333L440.333 348.667L439.667 348.333M521.333 348.667L521.667 349.333L521.333 348.667M148 349L148 352L149 352L148 349M161 349L162 350L161 349M236.333 349.667L236.667 350.333L236.333 349.667z"/>
<path style="fill:#937d76; stroke:none;" d="M298 349L303 358C306.246 354.696 300.712 350.933 298 349M313 349L313 350L317 350L313 349M329.333 349.667L329.667 350.333L329.333 349.667M378 349L379 350L378 349z"/>
<path style="fill:#d5acac; stroke:none;" d="M438 349L439 350L438 349z"/>
<path style="fill:#937d76; stroke:none;" d="M531 349L531 352L532 352L531 349z"/>
<path style="fill:#d5acac; stroke:none;" d="M162.333 350.667L162.667 351.333L162.333 350.667z"/>
<path style="fill:#937d76; stroke:none;" d="M377 350L378 351L377 350z"/>
<path style="fill:#d5acac; stroke:none;" d="M436.667 350.333L437.333 350.667L436.667 350.333M520.333 350.667L520.667 351.333L520.333 350.667M235.333 351.667L235.667 352.333L235.333 351.667z"/>
<path style="fill:#937d76; stroke:none;" d="M248 351C249.075 357.193 258.473 359.172 264 360L264 359L248 351M328 351L329 352L328 351M375.667 351.333L376.333 351.667L375.667 351.333M320 365L320 366C335.312 371.172 349.155 373.878 365 368.975C375.644 365.68 383.924 355.818 394 353.042C397.739 352.013 402.207 354.62 406 355C390.386 346.227 381.485 362.344 367 366.971C349.519 372.556 337.162 369.065 320 365z"/>
<path style="fill:#d5acac; stroke:none;" d="M435 351L436 352L435 351M149.333 352.667L149.667 353.333L149.333 352.667M163.333 352.667L163.667 353.333L163.333 352.667z"/>
<path style="fill:#937d76; stroke:none;" d="M327 352L328 353L327 352M374 352L375 353L374 352z"/>
<path style="fill:#d5acac; stroke:none;" d="M393 352L393 353L397 353L393 352z"/>
<path style="fill:#937d76; stroke:none;" d="M407 355L407 356L432 353L407 355z"/>
<path style="fill:#d5acac; stroke:none;" d="M432.667 352.333L433.333 352.667L432.667 352.333z"/>
<path style="fill:#937d76; stroke:none;" d="M530.333 352.667L530.667 353.333L530.333 352.667z"/>
<path style="fill:#d5acac; stroke:none;" d="M234 353L233 356L234 353M249 353L250 354L249 353z"/>
<path style="fill:#937d76; stroke:none;" d="M326 353L328 357L326 353M372.667 353.333L373.333 353.667L372.667 353.333z"/>
<path style="fill:#d5acac; stroke:none;" d="M392 353L393 354L392 353M397 353L397 354L400 354L397 353M430.667 353.333L431.333 353.667L430.667 353.333M519.333 353.667L519.667 354.333L519.333 353.667M150.333 354.667L150.667 355.333L150.333 354.667M164 354L165 355L164 354M250 354L250 355L253 355L250 354z"/>
<path style="fill:#937d76; stroke:none;" d="M370.667 354.333L371.333 354.667L370.667 354.333z"/>
<path style="fill:#d5acac; stroke:none;" d="M390.667 354.333L391.333 354.667L390.667 354.333M400.667 354.333L401.333 354.667L400.667 354.333M428.667 354.333L429.333 354.667L428.667 354.333z"/>
<path style="fill:#937d76; stroke:none;" d="M529 354L529 357L530 357L529 354z"/>
<path style="fill:#d5acac; stroke:none;" d="M165 355L167 358L165 355M254.667 355.333L255.333 355.667L254.667 355.333z"/>
<path style="fill:#937d76; stroke:none;" d="M368.667 355.333L369.333 355.667L368.667 355.333z"/>
<path style="fill:#d5acac; stroke:none;" d="M389 355L390 356L389 355M403 355L403 356L407 356L403 355M424 355L424 356L427 356L424 355M518 355L517 359L518 359L518 355M151.333 356.667L151.667 357.333L151.333 356.667M232.333 356.667L232.667 357.333L232.333 356.667M256.667 356.333L257.333 356.667L256.667 356.333z"/>
<path style="fill:#937d76; stroke:none;" d="M366.667 356.333L367.333 356.667L366.667 356.333z"/>
<path style="fill:#d5acac; stroke:none;" d="M388 356L389 357L388 356M407 356L407 357L424 357L407 356M258 357L258 358L261 358L258 357z"/>
<path style="fill:#937d76; stroke:none;" d="M328 357L328 358L333 359L333 358L328 357z"/>
<path style="fill:#d5acac; stroke:none;" d="M331.667 357.333L332.333 357.667L331.667 357.333z"/>
<path style="fill:#937d76; stroke:none;" d="M364.667 357.333L365.333 357.667L364.667 357.333z"/>
<path style="fill:#d5acac; stroke:none;" d="M387 357L388 358L387 357z"/>
<path style="fill:#937d76; stroke:none;" d="M518.333 357.667L518.667 358.333L518.333 357.667M528 357L528 360L529 360L528 357z"/>
<path style="fill:#d5acac; stroke:none;" d="M152.333 358.667L152.667 359.333L152.333 358.667M167 358L168 359L167 358M231 358L232 359L231 358M261 358L261 359L278 361L261 358z"/>
<path style="fill:#937d76; stroke:none;" d="M301.667 358.333L302.333 358.667L301.667 358.333z"/>
<path style="fill:#d5acac; stroke:none;" d="M333 358L333 359L355 360L333 358M356 358L356 359L360 359L356 358z"/>
<path style="fill:#937d76; stroke:none;" d="M360 358L360 359L363 359L360 358z"/>
<path style="fill:#d5acac; stroke:none;" d="M385.667 358.333L386.333 358.667L385.667 358.333M293 359L293 360L297 360L293 359z"/>
<path style="fill:#937d76; stroke:none;" d="M297 359L297 360L300 360L297 359M334 359L334 360L338 360L334 359M355 359L355 360L360 360L355 359z"/>
<path style="fill:#d5acac; stroke:none;" d="M384 359L385 360L384 359z"/>
<path style="fill:#937d76; stroke:none;" d="M517 359L516 371L517 371L517 359z"/>
<path style="fill:#d5acac; stroke:none;" d="M153 360L154 361L153 360M168 360L168 365L169 365L168 360M230 360L231 361L230 360z"/>
<path style="fill:#937d76; stroke:none;" d="M265 360L265 361L269 361L265 360z"/>
<path style="fill:#d5acac; stroke:none;" d="M286 360L286 361L292 361L286 360z"/>
<path style="fill:#937d76; stroke:none;" d="M292 360L292 361L296 361L292 360M339 360L339 361L355 361L339 360z"/>
<path style="fill:#d5acac; stroke:none;" d="M382.667 360.333L383.333 360.667L382.667 360.333M516.333 360.667L516.667 361.333L516.333 360.667z"/>
<path style="fill:#937d76; stroke:none;" d="M527.333 360.667L527.667 361.333L527.333 360.667z"/>
<path style="fill:#d5acac; stroke:none;" d="M154 361L155 362L154 361M229 361L230 362L229 361z"/>
<path style="fill:#937d76; stroke:none;" d="M270 361L270 362L280 363L270 361z"/>
<path style="fill:#d5acac; stroke:none;" d="M279.667 361.333L280.333 361.667L279.667 361.333z"/>
<path style="fill:#937d76; stroke:none;" d="M281 361L281 362L292 362L281 361z"/>
<path style="fill:#d5acac; stroke:none;" d="M381 361L382 362L381 361M155.333 362.667L155.667 363.333L155.333 362.667M228 362L227 365L228 362z"/>
<path style="fill:#937d76; stroke:none;" d="M232 376L243.326 364.33L265 371L243.184 362.748L232 376z"/>
<path style="fill:#d5acac; stroke:none;" d="M379.667 362.333L380.333 362.667L379.667 362.333M515 362L515 372L516 372L515 362M242 365L246 364L242 365M378 363L379 364L378 363z"/>
<path style="fill:#937d76; stroke:none;" d="M526 363L524 368L525 368L526 363z"/>
<path style="fill:#d5acac; stroke:none;" d="M156 364L157 365L156 364M246 364L247 365L246 364z"/>
<path style="fill:#937d76; stroke:none;" d="M312 365L312 366L316 365L312 365z"/>
<path style="fill:#d5acac; stroke:none;" d="M316 364L317 365L316 364z"/>
<path style="fill:#937d76; stroke:none;" d="M317.667 364.333L318.333 364.667L317.667 364.333z"/>
<path style="fill:#d5acac; stroke:none;" d="M376.667 364.333L377.333 364.667L376.667 364.333M157 365L158 366L157 365M167 365L168 366L167 365M226 365L227 366L226 365M241 365L242 366L241 365M247 365L248 366L247 365M313 365L313 366L316 366L313 365M318.667 365.333L319.333 365.667L318.667 365.333M374.667 365.333L375.333 365.667L374.667 365.333M526 365L527 366L526 365M158 366L159 367L158 366M166 366L162 368L162 369L166 366M225 366L226 367L225 366M240.333 366.667L240.667 367.333L240.333 366.667M248.667 366.333L249.333 366.667L248.667 366.333z"/>
<path style="fill:#937d76; stroke:none;" d="M300 369L300 370L311 367L300 369z"/>
<path style="fill:#d5acac; stroke:none;" d="M311.667 366.333L312.333 366.667L311.667 366.333M320.667 366.333L321.333 366.667L320.667 366.333M372.667 366.333L373.333 366.667L372.667 366.333M159.667 367.333L160.333 367.667L159.667 367.333M224.333 367.667L224.667 368.333L224.333 367.667M250.667 367.333L251.333 367.667L250.667 367.333M309.667 367.333L310.333 367.667L309.667 367.333M322 367L322 368L325 368L322 367M369 367L369 368L372 368L369 367M525 367L526 368L525 367M239 368L240 369L239 368M252 368L252 369L255 369L252 368M306 368L306 369L309 369L306 368M325.667 368.333L326.333 368.667L325.667 368.333M366 368L366 369L369 369L366 368M524 368L519 377C521.984 374.656 524.646 371.976 524 368M222 369L222 371L224 369L222 369M238.333 369.667L238.667 370.333L238.333 369.667M255 369L255 370L258 370L255 369M303 369L303 370L306 370L303 369M327 369L327 370L331 370L327 369M363 369L363 370L366 370L363 369z"/>
<path style="fill:#937d76; stroke:none;" d="M523 369L524 370L523 369z"/>
<path style="fill:#d5acac; stroke:none;" d="M258 370L258 371L261 371L258 370z"/>
<path style="fill:#937d76; stroke:none;" d="M273 372L273 373L299 371L273 372z"/>
<path style="fill:#d5acac; stroke:none;" d="M299 370L299 371L302 371L299 370M331 370L331 371L335 371L331 370M359 370L359 371L363 371L359 370z"/>
<path style="fill:#937d76; stroke:none;" d="M522.333 370.667L522.667 371.333L522.333 370.667z"/>
<path style="fill:#d5acac; stroke:none;" d="M221 371L222 372L221 371M237 371L238 372L237 371M262 371L262 372L273 373L262 371z"/>
<path style="fill:#937d76; stroke:none;" d="M266 371L266 372L271 372L266 371z"/>
<path style="fill:#d5acac; stroke:none;" d="M296.667 371.333L297.333 371.667L296.667 371.333M336 371L336 372L341 372L336 371M353 371L353 372L358 372L353 371M219 372L219 374L221 372L219 372M236 372L237 373L236 372M288 372L288 373L296 373L288 372M344 372L344 373L349 373L344 372M352 372L353 373L352 372z"/>
<path style="fill:#937d76; stroke:none;" d="M515 372L515 379L519 376L516 378L515 372M521.333 372.667L521.667 373.333L521.333 372.667z"/>
<path style="fill:#d5acac; stroke:none;" d="M235 373L236 374L235 373M273 373L273 374L288 374L273 373M218 374L219 375L218 374M234 374L235 375L234 374z"/>
<path style="fill:#937d76; stroke:none;" d="M520 374L521 375L520 374z"/>
<path style="fill:#d5acac; stroke:none;" d="M217 375L218 376L217 375M233 375C224.975 385.532 214.23 393.907 202 399L202 400C210.687 397.498 233.217 385.249 233 375M514 375L515 382L518 379L514 375z"/>
<path style="fill:#937d76; stroke:none;" d="M519 375L520 376L519 375z"/>
<path style="fill:#d5acac; stroke:none;" d="M216 376L217 377L216 376M213 379L216 377L213 379z"/>
<path style="fill:#937d76; stroke:none;" d="M230 377L230 379L232 377L230 377z"/>
<path style="fill:#d5acac; stroke:none;" d="M518 378L519 379L518 378M212 379L213 380L212 379z"/>
<path style="fill:#937d76; stroke:none;" d="M229 379L230 380L229 379z"/>
<path style="fill:#d5acac; stroke:none;" d="M211 380L212 381L211 380z"/>
<path style="fill:#937d76; stroke:none;" d="M228 380L229 381L228 380z"/>
<path style="fill:#d5acac; stroke:none;" d="M209.667 381.333L210.333 381.667L209.667 381.333z"/>
<path style="fill:#937d76; stroke:none;" d="M227 381L228 382L227 381z"/>
<path style="fill:#d5acac; stroke:none;" d="M208 382L209 383L208 382z"/>
<path style="fill:#937d76; stroke:none;" d="M226 382L227 383L226 382z"/>
<path style="fill:#d5acac; stroke:none;" d="M530 382C531.274 401.168 547.872 415.501 537.214 436C535.049 440.165 529.012 449.649 523.148 448.32C518.857 447.348 520.062 440.125 519.985 437C519.647 423.218 520.346 418.395 533 411C528.245 404.024 520.008 408.617 516 414L515 414C511.179 406.822 506.432 398.01 498 396C497.823 404.419 505.872 410.964 508.072 419C513.667 439.437 511.229 461.964 502.019 481C455.128 577.923 304.002 602.423 232.289 520C220.745 506.731 211.824 488.891 211.039 471C210.643 461.957 215.437 451.485 213 443C207.55 446.15 205.533 451.936 205 458C196.061 454.241 190.088 448.145 180 453C187.36 461.37 197.742 461.577 201.895 474C203.125 477.678 206.434 489.223 204.683 492.667C201.86 498.219 189.649 491.897 187 489L186 489C184.739 498.365 185.076 502.088 188 511L189 511L185 500C193.387 503.194 200.167 504.99 209 502C219.983 530.308 245.319 551.122 272 564.108C307.573 581.421 340.739 582.692 379 576.286C431.904 567.427 474.509 546.891 504.305 500C509.349 492.062 513.177 482.858 516.301 474C517.674 470.105 517.646 464.694 519.988 461.279C522.976 456.923 531.303 456.882 535.714 454.096C546.502 447.282 550.015 433.972 550 422C549.985 409.941 545.029 383.134 530 382M206.667 383.333L207.333 383.667L206.667 383.333z"/>
<path style="fill:#937d76; stroke:none;" d="M225 383L226 384L225 383z"/>
<path style="fill:#d5acac; stroke:none;" d="M204.667 384.333L205.333 384.667L204.667 384.333z"/>
<path style="fill:#937d76; stroke:none;" d="M224 384L225 385L224 384z"/>
<path style="fill:#d5acac; stroke:none;" d="M203 385L204 386L203 385z"/>
<path style="fill:#937d76; stroke:none;" d="M223 385L224 386L223 385z"/>
<path style="fill:#d5acac; stroke:none;" d="M164 387L164 388L190 392L164 387M200.667 386.333L201.333 386.667L200.667 386.333z"/>
<path style="fill:#937d76; stroke:none;" d="M220 388L223 386L220 388z"/>
<path style="fill:#d5acac; stroke:none;" d="M198.667 387.333L199.333 387.667L198.667 387.333M162 388C157.809 396.877 166.025 401.578 174 403L174 402C164.818 399.355 163.195 396.471 162 388z"/>
<path style="fill:#937d76; stroke:none;" d="M163 390L167 389L163 390M168.667 388.333L169.333 388.667L168.667 388.333z"/>
<path style="fill:#d5acac; stroke:none;" d="M197 388L198 389L197 388z"/>
<path style="fill:#937d76; stroke:none;" d="M219 388L220 389L219 388M170 389L170 390L173 390L170 389z"/>
<path style="fill:#d5acac; stroke:none;" d="M194.667 389.333L195.333 389.667L194.667 389.333z"/>
<path style="fill:#937d76; stroke:none;" d="M218 389L219 390L218 389M162 390L163 391L162 390M173.667 390.333L174.333 390.667L173.667 390.333z"/>
<path style="fill:#d5acac; stroke:none;" d="M191 390L191 391L194 391L191 390z"/>
<path style="fill:#937d76; stroke:none;" d="M216.667 390.333L217.333 390.667L216.667 390.333M161 391L161 395L162 395L161 391M175 391L175 392L178 392L175 391M190 391L190 392L193 392L190 391M215 391L216 392L215 391M178 392L178 393L189 393L178 392M213.667 392.333L214.333 392.667L213.667 392.333M212 393L213 394L212 393M210.667 394.333L211.333 394.667L210.667 394.333M162.333 395.667L162.667 396.333L162.333 395.667M208.667 395.333L209.333 395.667L208.667 395.333M206.667 396.333L207.333 396.667L206.667 396.333M163.667 397.333L164.333 397.667L163.667 397.333M204.667 397.333L205.333 397.667L204.667 397.333M165.667 398.333L166.333 398.667L165.667 398.333M202.667 398.333L203.333 398.667L202.667 398.333M167.667 399.333L168.333 399.667L167.667 399.333M193 401L193 402L202 400L193 401M169.667 400.333L170.333 400.667L169.667 400.333z"/>
<path style="fill:#d5acac; stroke:none;" d="M199.667 400.333L200.333 400.667L199.667 400.333z"/>
<path style="fill:#937d76; stroke:none;" d="M171 401L171 402L174 402L171 401z"/>
<path style="fill:#d5acac; stroke:none;" d="M196.667 401.333L197.333 401.667L196.667 401.333M428 401L428 402L442 404C437.344 412.444 422.493 407.813 419 420L428 419L428 418L420 419C426.112 411.033 433.694 412.823 440.663 407.977C446.078 404.211 436.664 401.317 434.005 401.093C432.016 400.926 429.994 401.001 428 401z"/>
<path style="fill:#937d76; stroke:none;" d="M174 402L174 403L187 404L174 402M188 402L188 403L192 403L188 402z"/>
<path style="fill:#d5acac; stroke:none;" d="M192 402L192 403L195 403L192 402M425.667 402.333L426.333 402.667L425.667 402.333z"/>
<path style="fill:#937d76; stroke:none;" d="M427 402L427 403L432 403L427 402z"/>
<path style="fill:#306bae; stroke:none;" d="M451 431C449.096 416.877 429.263 417.755 419 421C421.829 408.606 438.26 412.257 441 404C428.342 399.996 418.333 405.872 410.529 416C408.14 419.101 402.303 427.482 406.604 431.164C409.717 433.829 416.681 429.963 420 429.001C431.769 425.589 439.588 429.856 451 431z"/>
<path style="fill:#937d76; stroke:none;" d="M436 402L437 403L436 402z"/>
<path style="fill:#d5acac; stroke:none;" d="M175 403L175 404L180 404L175 403M187 403L187 404L192 404L187 403M405 423L406 423C410.346 415.373 416.354 408.42 424 404C416.176 403.358 407.458 416.517 405 423z"/>
<path style="fill:#937d76; stroke:none;" d="M424.667 403.333L425.333 403.667L424.667 403.333M439 403L440 404L439 403M422 404L423 405L422 404M441 404L441 407L442 407L441 404M421 405L422 406L421 405M419 406L420 407L419 406M418 407L419 408L418 407M440 407L441 408L440 407M417 408L418 409L417 408M431.667 408.333L432.333 408.667L431.667 408.333M416 409L417 410L416 409M429 409L430 410L429 409M415 410L416 411L415 410M427 410L428 411L427 410M414 411L415 412L414 411M425 411L426 412L425 411M413 412L414 413L413 412M424 412L425 413L424 412M412 413L413 414L412 413M423 413L424 414L423 413M411 414L412 415L411 414M409 417L410 418L409 417z"/>
<path style="fill:#d5acac; stroke:none;" d="M429 417L429 418L432 418L429 417z"/>
<path style="fill:#937d76; stroke:none;" d="M408 418L409 419L408 418M418.333 418.667L418.667 419.333L418.333 418.667M428 418L428 419L434 419L428 418z"/>
<path style="fill:#d5acac; stroke:none;" d="M434 418L434 419C441.353 419.336 446.693 421.954 451 428C451.657 420.096 439.899 418.126 434 418z"/>
<path style="fill:#937d76; stroke:none;" d="M422 419L422 420L426 420L422 419M437 419L437 420L440 420L437 419M407 420L408 421L407 420M419 420L420 421L419 420M442 420L443 421L442 420M406.333 421.667L406.667 422.333L406.333 421.667M444.667 421.333L445.333 421.667L444.667 421.333z"/>
<path style="fill:#d5acac; stroke:none;" d="M259 433L260 433C264.041 427.744 269.016 423.276 276 423.058C288.377 422.672 299.204 436.143 294.387 448C284.288 472.852 254.775 456.757 259 434C245.402 453.904 280.942 472.971 294.005 451.999C308.003 429.527 271.454 409.062 259 433z"/>
<path style="fill:#937d76; stroke:none;" d="M446 422L447 423L446 422M271 423L271 424L276 424L271 423z"/>
<path style="fill:#306bae; stroke:none;" d="M276 423.468C251.287 425.916 254.385 462.272 279 459.895C301.636 457.709 298.537 421.235 276 423.468z"/>
<path style="fill:#937d76; stroke:none;" d="M280.667 423.333L281.333 423.667L280.667 423.333M405.333 423.667L405.667 424.333L405.333 423.667M447 423L448 424L447 423M269 424L270 425L269 424M284 424L285 425L284 424z"/>
<path style="fill:#d5acac; stroke:none;" d="M404.333 424.667L404.667 425.333L404.333 424.667M179 504L180 504C179.996 496.959 178.843 485.898 187.952 483.345C191.077 482.469 191.943 485.296 190 487L190 488L194 487C190.642 477.443 187.087 485.357 181.35 484.245C178.119 483.619 176.053 478.577 174.761 476C169.413 465.332 167.981 453.753 168 442C168.006 438.432 170.943 429.23 168.36 426.647C161.529 419.817 160.004 442.256 160 445C159.98 457.474 160.94 469.503 166.323 481C170.204 489.289 178.77 494.501 179 504z"/>
<path style="fill:#937d76; stroke:none;" d="M267 425L268 426L267 425M285.667 425.333L286.333 425.667L285.667 425.333M449 425L450 426L449 425M265 426L266 427L265 426M287 426L288 427L287 426M404 426L404 430L405 430L404 426M450 426L451 427L450 426M264 427L265 428L264 427M288 427L289 428L288 427z"/>
<path style="fill:#d5acac; stroke:none;" d="M403 427L403 430L404 430L403 427z"/>
<path style="fill:#937d76; stroke:none;" d="M425 427L425 428L429 428L425 427z"/>
<path style="fill:#d5acac; stroke:none;" d="M429 427L429 428L433 428L429 427z"/>
<path style="fill:#937d76; stroke:none;" d="M433 427L433 428L437 428L433 427M263 428L264 429L263 428M289 428L290 429L289 428M421.667 428.333L422.333 428.667L421.667 428.333z"/>
<path style="fill:#d5acac; stroke:none;" d="M423 428L423 429L427 429L423 428M435 428L435 429L448 432L435 428z"/>
<path style="fill:#937d76; stroke:none;" d="M440.667 428.333L441.333 428.667L440.667 428.333M451 428L451 431L452 431L451 428M262 429L263 430L262 429M290 429L291 430L290 429M418 429L419 430L418 429z"/>
<path style="fill:#d5acac; stroke:none;" d="M419 429L419 430L423 430L419 429z"/>
<path style="fill:#937d76; stroke:none;" d="M443.667 429.333L444.333 429.667L443.667 429.333M261 430L262 431L261 430M291 430L292 431L291 430z"/>
<path style="fill:#d5acac; stroke:none;" d="M404 430C406.16 433.917 408.864 434.174 413 433L413 432L404 430z"/>
<path style="fill:#937d76; stroke:none;" d="M412 431L412 432L416 431L412 431z"/>
<path style="fill:#d5acac; stroke:none;" d="M416 430L416 431L419 431L416 430z"/>
<path style="fill:#937d76; stroke:none;" d="M445.667 430.333L446.333 430.667L445.667 430.333z"/>
<path style="fill:#d5acac; stroke:none;" d="M452 430L453 431L452 430z"/>
<path style="fill:#937d76; stroke:none;" d="M292 431L293 432L292 431M405 431L406 432L405 431z"/>
<path style="fill:#d5acac; stroke:none;" d="M414.667 431.333L415.333 431.667L414.667 431.333z"/>
<path style="fill:#937d76; stroke:none;" d="M448.667 431.333L449.333 431.667L448.667 431.333z"/>
<path style="fill:#d5acac; stroke:none;" d="M450.667 431.333L451.333 431.667L450.667 431.333z"/>
<path style="fill:#937d76; stroke:none;" d="M260 432L261 433L260 432M407 432L408 433L407 432M409.667 432.333L410.333 432.667L409.667 432.333M259.333 433.667L259.667 434.333L259.333 433.667M293 433L294 434L293 433M294.333 435.667L294.667 436.333L294.333 435.667M258 436L258 439L259 439L258 436M295 438L295 445L296 445L295 438M258 444L258 447L259 447L258 444M294 446L294 449L295 449L294 446M259.333 448.667L259.667 449.333L259.333 448.667M293.333 449.667L293.667 450.333L293.333 449.667M260 451L261 452L260 451M292 451L293 452L292 451z"/>
<path style="fill:#d5acac; stroke:none;" d="M479 451.745C476.572 452.622 474.598 455.059 472 455.4C469.066 455.785 466.8 452.985 464 452.541C461.58 452.157 451.417 454.005 449.224 455.221C444.023 458.106 443.019 470.19 450.019 471.461C455.869 472.524 457.55 465.205 462 465.205C465.328 465.205 467.207 470.658 471.004 471.069C476.095 471.62 477.898 465.791 482.09 464.402C486.159 463.054 490.646 466.528 494.681 463.821C503.508 457.898 484.244 449.853 479 451.745z"/>
<path style="fill:#937d76; stroke:none;" d="M261 452L262 453L261 452M262 453L263 454L262 453M291 453L292 454L291 453M290 454L291 455L290 454M289 455L290 456L289 455M265 456L266 457L265 456M288 456L289 457L288 456M266 457L267 458L266 457M286.667 457.333L287.333 457.667L286.667 457.333M267.667 458.333L268.333 458.667L267.667 458.333M284.667 458.333L285.333 458.667L284.667 458.333M269.667 459.333L270.333 459.667L269.667 459.333M282.667 459.333L283.333 459.667L282.667 459.333M273 460L273 461L280 461L273 460M180 498L181 498C181.22 493.2 184.456 480.746 191 486C177.741 488.163 186.347 503.676 185.962 511C185.665 516.65 182.278 522.475 181 528L182 528C183.735 522.667 187.015 516.579 187.512 511C188.158 503.751 178.629 488.11 193 487C188.602 475.047 179.274 491.014 180 498z"/>
<path style="fill:#4e393a; stroke:none;" d="M164 572L165 572C173.08 553.857 182.701 531.59 186.185 512C187.626 503.902 177.302 490.065 191 486C186.074 478.743 181.298 491.899 180.794 496C180.085 501.773 184.773 506.893 183.623 512.039C179.082 532.363 167.099 551.311 164 572z"/>
<path style="fill:#d5acac; stroke:none;" d="M258 498C266.347 504.503 273.47 511.601 280 498C281.983 498.665 283.972 499.504 286.005 500.004C290.262 501.051 297.599 498.903 294.153 493.132C289.888 485.99 275.355 483.148 272 492L269 492C265.056 480.438 244.181 485.942 243.208 496.004C242.179 506.65 254.65 506.199 258 498M187 487L188 488L187 487M384.317 487.801C379.306 489.791 382.051 501.877 374.96 505.427C367.473 509.176 360.438 504.083 355.17 499.093C353.313 497.335 349.521 493.654 347.042 496.758C343.989 500.579 349.509 506.541 352.019 508.895C359.869 516.258 371.117 518.797 380.999 514.08C387.47 510.992 391.704 504.153 391.87 497C391.957 493.229 389.609 485.7 384.317 487.801z"/>
<path style="fill:#937d76; stroke:none;" d="M180 500L184 511L185 511L180 500z"/>
<path style="fill:#d5acac; stroke:none;" d="M180.333 505.667L180.667 506.333L180.333 505.667M181 507L181 509L183 509L181 507M183 509L182 513L183 513L183 509z"/>
<path style="fill:#937d76; stroke:none;" d="M183 512L184 513L183 512z"/>
<path style="fill:#d5acac; stroke:none;" d="M187.333 512.667L187.667 513.333L187.333 512.667z"/>
<path style="fill:#937d76; stroke:none;" d="M182 513L181 518L182 518L182 513z"/>
<path style="fill:#d5acac; stroke:none;" d="M181.333 514.667L181.667 515.333L181.333 514.667M186 514L186 517L187 517L186 514M180 516L176 530L177 530L180 516M185 517L185 520L186 520L185 517z"/>
<path style="fill:#937d76; stroke:none;" d="M180 519L180 522L181 522L180 519z"/>
<path style="fill:#d5acac; stroke:none;" d="M184 520L184 523L185 523L184 520z"/>
<path style="fill:#937d76; stroke:none;" d="M179 522L179 525L180 525L179 522z"/>
<path style="fill:#d5acac; stroke:none;" d="M183 523L183 526L184 526L183 523z"/>
<path style="fill:#937d76; stroke:none;" d="M178 525L178 528L179 528L178 525z"/>
<path style="fill:#d5acac; stroke:none;" d="M182.333 526.667L182.667 527.333L182.333 526.667z"/>
<path style="fill:#937d76; stroke:none;" d="M177.333 528.667L177.667 529.333L177.333 528.667z"/>
<path style="fill:#d5acac; stroke:none;" d="M181 528L181 531L182 531L181 528z"/>
<path style="fill:#937d76; stroke:none;" d="M180 529L179 534L180 534L180 529M176 530L174 539L175 539L176 530z"/>
<path style="fill:#d5acac; stroke:none;" d="M175.333 531.667L175.667 532.333L175.333 531.667M180.333 532.667L180.667 533.333L180.333 532.667M174.333 534.667L174.667 535.333L174.333 534.667M179 534L178 540L179 540L179 534z"/>
<path style="fill:#937d76; stroke:none;" d="M178.333 535.667L178.667 536.333L178.333 535.667z"/>
<path style="fill:#d5acac; stroke:none;" d="M173 537L171 545L172 545L173 537z"/>
<path style="fill:#937d76; stroke:none;" d="M177 537L168.667 562L164 570L163 570L163 574C169.222 570.403 179.384 543.875 177 537M173.333 540.667L173.667 541.333L173.333 540.667z"/>
<path style="fill:#d5acac; stroke:none;" d="M177.333 541.667L177.667 542.333L177.333 541.667z"/>
<path style="fill:#937d76; stroke:none;" d="M172 542L172 545L173 545L172 542z"/>
<path style="fill:#d5acac; stroke:none;" d="M176 543L176 546L177 546L176 543z"/>
<path style="fill:#937d76; stroke:none;" d="M171 545L167 560L168 560L171 545z"/>
<path style="fill:#d5acac; stroke:none;" d="M170.333 546.667L170.667 547.333L170.333 546.667M175.333 546.667L175.667 547.333L175.333 546.667M169 548L169 551L170 551L169 548M174.333 549.667L174.667 550.333L174.333 549.667M168 551L168 554L169 554L168 551M173 552L172 557L173 557L173 552M167 554L167 557L168 557L167 554M171 557L171 560L172 560L171 557M166 558L164 566L165 566L166 558M170.333 560.667L170.667 561.333L170.333 560.667z"/>
<path style="fill:#937d76; stroke:none;" d="M166 561L166 564L167 564L166 561z"/>
<path style="fill:#d5acac; stroke:none;" d="M169.333 563.667L169.667 564.333L169.333 563.667z"/>
<path style="fill:#937d76; stroke:none;" d="M165.333 564.667L165.667 565.333L165.333 564.667z"/>
<path style="fill:#d5acac; stroke:none;" d="M168 565L168 568L169 568L168 565z"/>
<path style="fill:#937d76; stroke:none;" d="M164 566L164 569L165 569L164 566z"/>
<path style="fill:#d5acac; stroke:none;" d="M163 567L163 570L164 570L163 567M167.333 568.667L167.667 569.333L167.333 568.667M134 609L137 604L139 604C139.001 609.193 138.577 614.589 142.532 618.603C148.225 624.378 161.849 621.673 165.821 614.856C168.607 610.074 166.273 602.922 165 598L164 598C164.717 601.848 165.785 606.074 165.721 609.999C165.639 615.026 162.177 616.469 157.999 617.881C152.731 619.662 147.754 620.868 143.228 616.606C137.755 611.451 138.805 600.064 146.015 597.148C148.879 595.99 151.969 596.025 155 596L155 595L141 597L146 582C152.839 583.97 168.948 589.949 171.647 597.174C172.808 600.282 170.469 604.822 170 608L171 608C174.241 593.989 170.574 593.755 160 585C169.888 586.482 174.827 590.894 185 587C184.832 591.075 182.008 592.615 180.244 596.104C176.614 603.286 175.459 614.767 168 619L170 609L169 609L163 627L163 629C179.497 633.49 180.45 611.627 183.657 601C185.042 596.409 188.431 588.938 186.396 584.214C183.332 577.101 170.925 578.554 167 571L166 571L163 574L163 570C157.762 571.749 152.355 569.412 147.044 572.303C137.964 577.246 134.079 599.537 134 609z"/>
<path style="fill:#937d76; stroke:none;" d="M160 585L172.788 596.174L168 619C175.938 616.289 177.051 602.742 180.708 596.104C182.688 592.508 185.655 591.374 185 587L160 585z"/>
<path style="fill:#4e393a; stroke:none;" d="M171 591C176.298 599.994 170.807 606.116 170 616L171 616L185 589L171 591z"/>
<path style="fill:#d5acac; stroke:none;" d="M156 594L156 595L162 596L156 594z"/>
<path style="fill:#937d76; stroke:none;" d="M155 595L155 596C161.273 596.474 163.667 599.924 164 606C166.929 598.815 161.546 595.158 155 595M147 596L147 597L154 597L147 596z"/>
<path style="fill:#4e393a; stroke:none;" d="M154 596.425C150.465 596.871 145.314 596.622 142.742 599.514C136.083 606.998 142.231 619.679 152 618.8C155.331 618.5 161.948 617.53 163.972 614.567C169.109 607.048 162.64 595.336 154 596.425z"/>
<path style="fill:#d5acac; stroke:none;" d="M163 596L164 597L163 596z"/>
<path style="fill:#937d76; stroke:none;" d="M144.667 597.333L145.333 597.667L144.667 597.333M142 598L143 599L142 598M141.333 599.667L141.667 600.333L141.333 599.667M146 599L146 600L150 600L146 599M144.333 600.667L144.667 601.333L144.333 600.667z"/>
<path style="fill:#d5acac; stroke:none;" d="M144 604C147.471 605.884 151.132 608.876 154 605L145 602L154 604C151.379 599.514 146.097 598.783 144 604z"/>
<path style="fill:#937d76; stroke:none;" d="M151.667 600.333L152.333 600.667L151.667 600.333M140 601L140 607L141 607L140 601z"/>
<path style="fill:#fffefe; stroke:none;" d="M145 602C147.784 605.313 149.874 606.653 154 605C151.268 601.721 149.146 600.907 145 602z"/>
<path style="fill:#937d76; stroke:none;" d="M153 601L154 602L153 601M154 602L154 607L155 607L154 602M144.667 604.333L145.333 604.667L144.667 604.333M146 605L147 606L146 605M147.667 606.333L148.333 606.667L147.667 606.333M158 606L158 607L161 608L158 612L158 613C161.944 610.808 161.736 608.321 158 606M149 607L150 608L149 607M152.667 607.333L153.333 607.667L152.667 607.333M156 607L156 612L157 612L156 607z"/>
<path style="fill:#d5acac; stroke:none;" d="M157 607C156.311 611.468 159.569 612.305 161 608L160 608L157 611L159 608L157 607z"/>
<path style="fill:#937d76; stroke:none;" d="M165 607L165 614L166 614L165 607M140 608L141 609L140 608z"/>
<path style="fill:#fffefe; stroke:none;" d="M157 608L157 611L160 611L160 608L157 608z"/>
<path style="fill:#937d76; stroke:none;" d="M140 610L140 614L141 614L140 610M141.333 614.667L141.667 615.333L141.333 614.667M164 615L165 616L164 615M142 616L143 617L142 616M162.667 616.333L163.333 616.667L162.667 616.333M143.667 617.333L144.333 617.667L143.667 617.333M157.667 617.333L158.333 617.667L157.667 617.333M145.667 618.333L146.333 618.667L145.667 618.333M154 618L154 619L157 619L154 618M147 619L147 620L154 620L147 619z"/>
</svg>
